<svg xmlns="http://www.w3.org/2000/svg" xmlns:xlink="http://www.w3.org/1999/xlink" width="500" zoomAndPan="magnify" viewBox="0 0 375 187.499995" height="250" preserveAspectRatio="xMidYMid meet" version="1.0"><defs><g/><clipPath id="c742cbbe3e"><path d="M 5.660156 58.992188 L 74.675781 58.992188 L 74.675781 128.011719 L 5.660156 128.011719 Z M 5.660156 58.992188 " clip-rule="nonzero"/></clipPath><clipPath id="7f914e286f"><path d="M 17.988281 58.992188 L 62.347656 58.992188 C 69.15625 58.992188 74.675781 64.511719 74.675781 71.320312 L 74.675781 115.679688 C 74.675781 122.488281 69.15625 128.011719 62.347656 128.011719 L 17.988281 128.011719 C 11.179688 128.011719 5.660156 122.488281 5.660156 115.679688 L 5.660156 71.320312 C 5.660156 64.511719 11.179688 58.992188 17.988281 58.992188 Z M 17.988281 58.992188 " clip-rule="nonzero"/></clipPath><clipPath id="08baa8420b"><path d="M 8.425781 72.808594 L 22 72.808594 L 22 113.949219 L 8.425781 113.949219 Z M 8.425781 72.808594 " clip-rule="nonzero"/></clipPath><clipPath id="812d024f37"><path d="M 58 72.808594 L 71.539062 72.808594 L 71.539062 113.949219 L 58 113.949219 Z M 58 72.808594 " clip-rule="nonzero"/></clipPath></defs><g clip-path="url(#c742cbbe3e)"><g clip-path="url(#7f914e286f)"><path fill="#ff5757" d="M 5.660156 58.992188 L 74.675781 58.992188 L 74.675781 128.011719 L 5.660156 128.011719 Z M 5.660156 58.992188 " fill-opacity="1" fill-rule="nonzero"/></g></g><g clip-path="url(#08baa8420b)"><path fill="#efefef" d="M 19.929688 77.40625 L 21.078125 77.40625 L 21.078125 72.808594 L 19.929688 72.808594 C 16.117188 72.808594 13.03125 75.894531 13.03125 79.703125 L 13.03125 87.753906 C 13.03125 88.476562 12.691406 89.15625 12.109375 89.589844 L 9.351562 91.660156 C 8.800781 92.074219 8.460938 92.714844 8.433594 93.40625 C 8.40625 94.09375 8.6875 94.761719 9.203125 95.21875 L 12.257812 97.933594 C 12.75 98.371094 13.03125 98.996094 13.03125 99.652344 L 13.03125 107.296875 C 13.03125 111.105469 16.117188 114.191406 19.929688 114.191406 L 21.078125 114.191406 L 21.078125 109.59375 L 19.929688 109.59375 C 18.660156 109.59375 17.628906 108.566406 17.628906 107.296875 L 17.628906 99.652344 C 17.628906 97.679688 16.785156 95.804688 15.3125 94.496094 L 14.363281 93.652344 L 14.871094 93.269531 C 16.605469 91.96875 17.628906 89.921875 17.628906 87.753906 L 17.628906 79.703125 C 17.628906 78.433594 18.660156 77.40625 19.929688 77.40625 Z M 19.929688 77.40625 " fill-opacity="1" fill-rule="evenodd"/></g><g clip-path="url(#812d024f37)"><path fill="#efefef" d="M 60.070312 77.40625 L 58.921875 77.40625 L 58.921875 72.808594 L 60.070312 72.808594 C 63.878906 72.808594 66.96875 75.894531 66.96875 79.703125 L 66.96875 87.753906 C 66.96875 88.476562 67.308594 89.15625 67.886719 89.589844 L 70.648438 91.660156 C 71.199219 92.074219 71.535156 92.714844 71.566406 93.40625 C 71.59375 94.09375 71.3125 94.761719 70.796875 95.21875 L 67.742188 97.933594 C 67.25 98.371094 66.96875 98.996094 66.96875 99.652344 L 66.96875 107.296875 C 66.96875 111.105469 63.878906 114.191406 60.070312 114.191406 L 58.921875 114.191406 L 58.921875 109.59375 L 60.070312 109.59375 C 61.339844 109.59375 62.371094 108.566406 62.371094 107.296875 L 62.371094 99.652344 C 62.371094 97.679688 63.214844 95.804688 64.6875 94.496094 L 65.636719 93.652344 L 65.128906 93.269531 C 63.394531 91.96875 62.371094 89.921875 62.371094 87.753906 L 62.371094 79.703125 C 62.371094 78.433594 61.339844 77.40625 60.070312 77.40625 Z M 60.070312 77.40625 " fill-opacity="1" fill-rule="evenodd"/></g><g fill="#292929" fill-opacity="1"><g transform="translate(81.607795, 106.279797)"><g><path d="M 24.75 0 L 18.5 0 L 10.359375 -13.078125 L 8.140625 -13.078125 L 8.140625 0 L 2.640625 0 L 2.640625 -26.921875 C 2.640625 -26.972656 2.546875 -27.363281 2.359375 -28.09375 C 2.179688 -28.832031 2.078125 -29.257812 2.046875 -29.375 L 12.125 -29.375 C 15.09375 -29.375 17.484375 -28.742188 19.296875 -27.484375 C 21.117188 -26.222656 22.03125 -24.175781 22.03125 -21.34375 C 22.03125 -19.6875 21.398438 -18.132812 20.140625 -16.6875 C 18.878906 -15.25 17.421875 -14.328125 15.765625 -13.921875 Z M 16.203125 -21.390625 C 16.203125 -22.640625 15.757812 -23.613281 14.875 -24.3125 C 14 -25.007812 12.90625 -25.359375 11.59375 -25.359375 L 8.140625 -25.359375 L 8.140625 -17.015625 L 10.71875 -17.015625 C 14.375 -17.015625 16.203125 -18.472656 16.203125 -21.390625 Z M 16.203125 -21.390625 "/></g></g></g><g fill="#292929" fill-opacity="1"><g transform="translate(104.678753, 106.279797)"><g><path d="M 28.8125 -14.640625 C 28.8125 -10.234375 27.539062 -6.617188 25 -3.796875 C 22.457031 -0.972656 19.003906 0.4375 14.640625 0.4375 C 10.285156 0.4375 6.882812 -0.984375 4.4375 -3.828125 C 1.988281 -6.679688 0.765625 -10.3125 0.765625 -14.71875 C 0.765625 -19.164062 1.992188 -22.789062 4.453125 -25.59375 C 6.910156 -28.40625 10.320312 -29.8125 14.6875 -29.8125 C 19.15625 -29.8125 22.625 -28.410156 25.09375 -25.609375 C 27.570312 -22.816406 28.8125 -19.160156 28.8125 -14.640625 Z M 22.875 -14.484375 C 22.875 -15.898438 22.738281 -17.242188 22.46875 -18.515625 C 22.195312 -19.785156 21.765625 -21.003906 21.171875 -22.171875 C 20.585938 -23.335938 19.738281 -24.265625 18.625 -24.953125 C 17.519531 -25.648438 16.21875 -26 14.71875 -26 C 13.25 -26 11.96875 -25.671875 10.875 -25.015625 C 9.78125 -24.359375 8.9375 -23.472656 8.34375 -22.359375 C 7.757812 -21.253906 7.332031 -20.078125 7.0625 -18.828125 C 6.789062 -17.585938 6.65625 -16.273438 6.65625 -14.890625 C 6.65625 -13.472656 6.789062 -12.128906 7.0625 -10.859375 C 7.332031 -9.585938 7.757812 -8.367188 8.34375 -7.203125 C 8.9375 -6.035156 9.785156 -5.101562 10.890625 -4.40625 C 12.003906 -3.71875 13.3125 -3.375 14.8125 -3.375 C 16.28125 -3.375 17.5625 -3.703125 18.65625 -4.359375 C 19.75 -5.015625 20.585938 -5.894531 21.171875 -7 C 21.765625 -8.113281 22.195312 -9.289062 22.46875 -10.53125 C 22.738281 -11.78125 22.875 -13.097656 22.875 -14.484375 Z M 22.875 -14.484375 "/></g></g></g><g fill="#292929" fill-opacity="1"><g transform="translate(133.607761, 106.279797)"><g><path d="M 23.515625 -8.140625 C 23.515625 -6.242188 22.976562 -4.660156 21.90625 -3.390625 C 20.832031 -2.117188 19.535156 -1.234375 18.015625 -0.734375 C 16.492188 -0.242188 14.804688 0 12.953125 0 L 2.6875 0 L 2.6875 -26.921875 C 2.6875 -26.953125 2.640625 -27.15625 2.546875 -27.53125 C 2.453125 -27.90625 2.359375 -28.289062 2.265625 -28.6875 C 2.171875 -29.09375 2.125 -29.320312 2.125 -29.375 L 12.5625 -29.375 C 13.8125 -29.375 14.960938 -29.269531 16.015625 -29.0625 C 17.078125 -28.863281 18.085938 -28.523438 19.046875 -28.046875 C 20.015625 -27.566406 20.773438 -26.847656 21.328125 -25.890625 C 21.878906 -24.941406 22.15625 -23.816406 22.15625 -22.515625 C 22.15625 -20.828125 21.578125 -19.378906 20.421875 -18.171875 C 19.273438 -16.972656 17.859375 -16.253906 16.171875 -16.015625 C 18.234375 -15.660156 19.972656 -14.765625 21.390625 -13.328125 C 22.804688 -11.898438 23.515625 -10.171875 23.515625 -8.140625 Z M 16.328125 -21.75 C 16.328125 -22.976562 15.957031 -23.894531 15.21875 -24.5 C 14.488281 -25.101562 13.492188 -25.40625 12.234375 -25.40625 L 8.21875 -25.40625 L 8.21875 -17.890625 L 12.359375 -17.890625 C 13.503906 -17.890625 14.453125 -18.242188 15.203125 -18.953125 C 15.953125 -19.660156 16.328125 -20.59375 16.328125 -21.75 Z M 17.6875 -8.78125 C 17.6875 -10.46875 17.070312 -11.742188 15.84375 -12.609375 C 14.613281 -13.484375 13.117188 -13.921875 11.359375 -13.921875 L 8.21875 -13.921875 L 8.21875 -3.96875 L 12.59375 -3.96875 C 14.125 -3.96875 15.351562 -4.394531 16.28125 -5.25 C 17.21875 -6.113281 17.6875 -7.289062 17.6875 -8.78125 Z M 17.6875 -8.78125 "/></g></g></g><g fill="#292929" fill-opacity="1"><g transform="translate(157.601564, 106.279797)"><g><path d="M 23.515625 -8.140625 C 23.515625 -6.242188 22.976562 -4.660156 21.90625 -3.390625 C 20.832031 -2.117188 19.535156 -1.234375 18.015625 -0.734375 C 16.492188 -0.242188 14.804688 0 12.953125 0 L 2.6875 0 L 2.6875 -26.921875 C 2.6875 -26.953125 2.640625 -27.15625 2.546875 -27.53125 C 2.453125 -27.90625 2.359375 -28.289062 2.265625 -28.6875 C 2.171875 -29.09375 2.125 -29.320312 2.125 -29.375 L 12.5625 -29.375 C 13.8125 -29.375 14.960938 -29.269531 16.015625 -29.0625 C 17.078125 -28.863281 18.085938 -28.523438 19.046875 -28.046875 C 20.015625 -27.566406 20.773438 -26.847656 21.328125 -25.890625 C 21.878906 -24.941406 22.15625 -23.816406 22.15625 -22.515625 C 22.15625 -20.828125 21.578125 -19.378906 20.421875 -18.171875 C 19.273438 -16.972656 17.859375 -16.253906 16.171875 -16.015625 C 18.234375 -15.660156 19.972656 -14.765625 21.390625 -13.328125 C 22.804688 -11.898438 23.515625 -10.171875 23.515625 -8.140625 Z M 16.328125 -21.75 C 16.328125 -22.976562 15.957031 -23.894531 15.21875 -24.5 C 14.488281 -25.101562 13.492188 -25.40625 12.234375 -25.40625 L 8.21875 -25.40625 L 8.21875 -17.890625 L 12.359375 -17.890625 C 13.503906 -17.890625 14.453125 -18.242188 15.203125 -18.953125 C 15.953125 -19.660156 16.328125 -20.59375 16.328125 -21.75 Z M 17.6875 -8.78125 C 17.6875 -10.46875 17.070312 -11.742188 15.84375 -12.609375 C 14.613281 -13.484375 13.117188 -13.921875 11.359375 -13.921875 L 8.21875 -13.921875 L 8.21875 -3.96875 L 12.59375 -3.96875 C 14.125 -3.96875 15.351562 -4.394531 16.28125 -5.25 C 17.21875 -6.113281 17.6875 -7.289062 17.6875 -8.78125 Z M 17.6875 -8.78125 "/></g></g></g><g fill="#292929" fill-opacity="1"><g transform="translate(181.595368, 106.279797)"><g><path d="M 8.1875 0 L 2.640625 0 L 2.640625 -26.921875 C 2.640625 -26.953125 2.59375 -27.15625 2.5 -27.53125 C 2.414062 -27.90625 2.328125 -28.289062 2.234375 -28.6875 C 2.140625 -29.09375 2.09375 -29.320312 2.09375 -29.375 L 8.1875 -29.375 Z M 8.1875 0 "/></g></g></g><g fill="#292929" fill-opacity="1"><g transform="translate(191.706398, 106.279797)"><g><path d="M 26.078125 0.203125 L 21.75 0.203125 L 8.546875 -19.9375 C 7.640625 -21.351562 7.078125 -22.25 6.859375 -22.625 C 7.023438 -20.863281 7.109375 -19.96875 7.109375 -19.9375 L 7.109375 0 L 2.640625 0 L 2.640625 -26.890625 C 2.640625 -26.910156 2.59375 -27.109375 2.5 -27.484375 C 2.414062 -27.859375 2.328125 -28.242188 2.234375 -28.640625 C 2.140625 -29.046875 2.09375 -29.273438 2.09375 -29.328125 L 8.671875 -29.328125 L 20.21875 -11.75 C 20.625 -11.164062 21.175781 -10.285156 21.875 -9.109375 C 21.707031 -11.117188 21.625 -12.148438 21.625 -12.203125 L 21.625 -29.328125 L 26.078125 -29.328125 Z M 26.078125 0.203125 "/></g></g></g><g fill="#292929" fill-opacity="1"><g transform="translate(219.712566, 106.279797)"><g><path d="M 19.90625 -8.625 C 19.90625 -5.789062 18.90625 -3.5625 16.90625 -1.9375 C 14.914062 -0.320312 12.476562 0.484375 9.59375 0.484375 C 5.925781 0.484375 2.78125 -0.289062 0.15625 -1.84375 L 2.046875 -6.296875 C 4.128906 -4.347656 6.46875 -3.375 9.0625 -3.375 C 10.425781 -3.375 11.597656 -3.75 12.578125 -4.5 C 13.554688 -5.25 14.046875 -6.289062 14.046875 -7.625 C 14.046875 -8.582031 13.722656 -9.4375 13.078125 -10.1875 C 12.441406 -10.9375 11.644531 -11.523438 10.6875 -11.953125 C 9.738281 -12.378906 8.703125 -12.878906 7.578125 -13.453125 C 6.453125 -14.035156 5.414062 -14.617188 4.46875 -15.203125 C 3.519531 -15.796875 2.722656 -16.632812 2.078125 -17.71875 C 1.441406 -18.800781 1.125 -20.050781 1.125 -21.46875 C 1.125 -24.21875 2.078125 -26.300781 3.984375 -27.71875 C 5.898438 -29.144531 8.453125 -29.859375 11.640625 -29.859375 C 12.835938 -29.859375 14.222656 -29.613281 15.796875 -29.125 C 17.378906 -28.644531 18.585938 -28.085938 19.421875 -27.453125 L 16.65625 -24 C 15.15625 -25.332031 13.304688 -26 11.109375 -26 C 9.984375 -26 9.015625 -25.703125 8.203125 -25.109375 C 7.390625 -24.523438 6.984375 -23.695312 6.984375 -22.625 C 6.984375 -21.6875 7.300781 -20.863281 7.9375 -20.15625 C 8.582031 -19.445312 9.378906 -18.878906 10.328125 -18.453125 C 11.273438 -18.023438 12.3125 -17.515625 13.4375 -16.921875 C 14.5625 -16.335938 15.597656 -15.742188 16.546875 -15.140625 C 17.492188 -14.546875 18.289062 -13.6875 18.9375 -12.5625 C 19.582031 -11.4375 19.90625 -10.125 19.90625 -8.625 Z M 19.90625 -8.625 "/></g></g></g><g fill="#292929" fill-opacity="1"><g transform="translate(239.774263, 106.279797)"><g><path d="M 23.515625 -8.140625 C 23.515625 -6.242188 22.976562 -4.660156 21.90625 -3.390625 C 20.832031 -2.117188 19.535156 -1.234375 18.015625 -0.734375 C 16.492188 -0.242188 14.804688 0 12.953125 0 L 2.6875 0 L 2.6875 -26.921875 C 2.6875 -26.953125 2.640625 -27.15625 2.546875 -27.53125 C 2.453125 -27.90625 2.359375 -28.289062 2.265625 -28.6875 C 2.171875 -29.09375 2.125 -29.320312 2.125 -29.375 L 12.5625 -29.375 C 13.8125 -29.375 14.960938 -29.269531 16.015625 -29.0625 C 17.078125 -28.863281 18.085938 -28.523438 19.046875 -28.046875 C 20.015625 -27.566406 20.773438 -26.847656 21.328125 -25.890625 C 21.878906 -24.941406 22.15625 -23.816406 22.15625 -22.515625 C 22.15625 -20.828125 21.578125 -19.378906 20.421875 -18.171875 C 19.273438 -16.972656 17.859375 -16.253906 16.171875 -16.015625 C 18.234375 -15.660156 19.972656 -14.765625 21.390625 -13.328125 C 22.804688 -11.898438 23.515625 -10.171875 23.515625 -8.140625 Z M 16.328125 -21.75 C 16.328125 -22.976562 15.957031 -23.894531 15.21875 -24.5 C 14.488281 -25.101562 13.492188 -25.40625 12.234375 -25.40625 L 8.21875 -25.40625 L 8.21875 -17.890625 L 12.359375 -17.890625 C 13.503906 -17.890625 14.453125 -18.242188 15.203125 -18.953125 C 15.953125 -19.660156 16.328125 -20.59375 16.328125 -21.75 Z M 17.6875 -8.78125 C 17.6875 -10.46875 17.070312 -11.742188 15.84375 -12.609375 C 14.613281 -13.484375 13.117188 -13.921875 11.359375 -13.921875 L 8.21875 -13.921875 L 8.21875 -3.96875 L 12.59375 -3.96875 C 14.125 -3.96875 15.351562 -4.394531 16.28125 -5.25 C 17.21875 -6.113281 17.6875 -7.289062 17.6875 -8.78125 Z M 17.6875 -8.78125 "/></g></g></g><g fill="#292929" fill-opacity="1"><g transform="translate(263.768061, 106.279797)"><g><path d="M 25.84375 -11.15625 C 25.84375 -7.164062 24.789062 -4.234375 22.6875 -2.359375 C 20.59375 -0.492188 17.789062 0.4375 14.28125 0.4375 C 10.5625 0.4375 7.707031 -0.554688 5.71875 -2.546875 C 3.726562 -4.535156 2.734375 -7.40625 2.734375 -11.15625 L 2.734375 -26.96875 L 2.09375 -29.375 L 8.390625 -29.375 L 8.390625 -9.828125 C 8.390625 -7.878906 8.976562 -6.316406 10.15625 -5.140625 C 11.332031 -3.960938 12.894531 -3.375 14.84375 -3.375 C 16.820312 -3.375 18.394531 -3.945312 19.5625 -5.09375 C 20.726562 -6.25 21.3125 -7.828125 21.3125 -9.828125 L 21.3125 -29.375 L 25.84375 -29.375 Z M 25.84375 -11.15625 "/></g></g></g><g fill="#292929" fill-opacity="1"><g transform="translate(291.49336, 106.279797)"><g><path d="M 8.1875 0 L 2.640625 0 L 2.640625 -26.921875 C 2.640625 -26.953125 2.59375 -27.15625 2.5 -27.53125 C 2.414062 -27.90625 2.328125 -28.289062 2.234375 -28.6875 C 2.140625 -29.09375 2.09375 -29.320312 2.09375 -29.375 L 8.1875 -29.375 Z M 8.1875 0 "/></g></g></g><g fill="#292929" fill-opacity="1"><g transform="translate(301.604379, 106.279797)"><g><path d="M 19.734375 0 L 2.640625 0 L 2.640625 -26.921875 C 2.640625 -26.953125 2.597656 -27.15625 2.515625 -27.53125 C 2.441406 -27.90625 2.359375 -28.289062 2.265625 -28.6875 C 2.171875 -29.09375 2.125 -29.320312 2.125 -29.375 L 8.21875 -29.375 L 8.21875 -3.96875 L 19.734375 -3.96875 Z M 19.734375 0 "/></g></g></g><g fill="#292929" fill-opacity="1"><g transform="translate(321.585827, 106.279797)"><g><path d="M 27.28125 -14.640625 C 27.28125 -10.148438 25.90625 -6.539062 23.15625 -3.8125 C 20.613281 -1.269531 17.269531 0 13.125 0 L 2.6875 0 L 2.6875 -26.921875 C 2.6875 -26.953125 2.585938 -27.347656 2.390625 -28.109375 C 2.191406 -28.867188 2.078125 -29.289062 2.046875 -29.375 L 13.15625 -29.375 C 17.570312 -29.375 21.03125 -28.03125 23.53125 -25.34375 C 26.03125 -22.65625 27.28125 -19.085938 27.28125 -14.640625 Z M 21.34375 -14.484375 C 21.34375 -16.410156 21.070312 -18.160156 20.53125 -19.734375 C 20 -21.316406 19.070312 -22.65625 17.75 -23.75 C 16.425781 -24.851562 14.773438 -25.40625 12.796875 -25.40625 L 8.21875 -25.40625 L 8.21875 -3.96875 L 12.875 -3.96875 C 14.351562 -3.96875 15.648438 -4.253906 16.765625 -4.828125 C 17.890625 -5.410156 18.773438 -6.203125 19.421875 -7.203125 C 20.066406 -8.203125 20.546875 -9.3125 20.859375 -10.53125 C 21.179688 -11.75 21.34375 -13.066406 21.34375 -14.484375 Z M 21.34375 -14.484375 "/></g></g></g><g fill="#292929" fill-opacity="1"><g transform="translate(348.990134, 106.279797)"><g><path d="M 19.90625 -8.625 C 19.90625 -5.789062 18.90625 -3.5625 16.90625 -1.9375 C 14.914062 -0.320312 12.476562 0.484375 9.59375 0.484375 C 5.925781 0.484375 2.78125 -0.289062 0.15625 -1.84375 L 2.046875 -6.296875 C 4.128906 -4.347656 6.46875 -3.375 9.0625 -3.375 C 10.425781 -3.375 11.597656 -3.75 12.578125 -4.5 C 13.554688 -5.25 14.046875 -6.289062 14.046875 -7.625 C 14.046875 -8.582031 13.722656 -9.4375 13.078125 -10.1875 C 12.441406 -10.9375 11.644531 -11.523438 10.6875 -11.953125 C 9.738281 -12.378906 8.703125 -12.878906 7.578125 -13.453125 C 6.453125 -14.035156 5.414062 -14.617188 4.46875 -15.203125 C 3.519531 -15.796875 2.722656 -16.632812 2.078125 -17.71875 C 1.441406 -18.800781 1.125 -20.050781 1.125 -21.46875 C 1.125 -24.21875 2.078125 -26.300781 3.984375 -27.71875 C 5.898438 -29.144531 8.453125 -29.859375 11.640625 -29.859375 C 12.835938 -29.859375 14.222656 -29.613281 15.796875 -29.125 C 17.378906 -28.644531 18.585938 -28.085938 19.421875 -27.453125 L 16.65625 -24 C 15.15625 -25.332031 13.304688 -26 11.109375 -26 C 9.984375 -26 9.015625 -25.703125 8.203125 -25.109375 C 7.390625 -24.523438 6.984375 -23.695312 6.984375 -22.625 C 6.984375 -21.6875 7.300781 -20.863281 7.9375 -20.15625 C 8.582031 -19.445312 9.378906 -18.878906 10.328125 -18.453125 C 11.273438 -18.023438 12.3125 -17.515625 13.4375 -16.921875 C 14.5625 -16.335938 15.597656 -15.742188 16.546875 -15.140625 C 17.492188 -14.546875 18.289062 -13.6875 18.9375 -12.5625 C 19.582031 -11.4375 19.90625 -10.125 19.90625 -8.625 Z M 19.90625 -8.625 "/></g></g></g><g fill="#ffffff" fill-opacity="1"><g transform="translate(27.978775, 108.049023)"><g><path d="M 25.359375 0 L 18.953125 0 L 10.609375 -13.40625 L 8.34375 -13.40625 L 8.34375 0 L 2.71875 0 L 2.71875 -27.578125 C 2.71875 -27.640625 2.617188 -28.046875 2.421875 -28.796875 C 2.234375 -29.546875 2.125 -29.976562 2.09375 -30.09375 L 12.421875 -30.09375 C 15.460938 -30.09375 17.910156 -29.445312 19.765625 -28.15625 C 21.628906 -26.875 22.5625 -24.78125 22.5625 -21.875 C 22.5625 -20.175781 21.914062 -18.582031 20.625 -17.09375 C 19.34375 -15.613281 17.851562 -14.671875 16.15625 -14.265625 Z M 16.609375 -21.90625 C 16.609375 -23.195312 16.15625 -24.195312 15.25 -24.90625 C 14.34375 -25.625 13.21875 -25.984375 11.875 -25.984375 L 8.34375 -25.984375 L 8.34375 -17.4375 L 10.96875 -17.4375 C 14.726562 -17.4375 16.609375 -18.925781 16.609375 -21.90625 Z M 16.609375 -21.90625 "/></g></g></g></svg>