<svg xmlns="http://www.w3.org/2000/svg" xmlns:xlink="http://www.w3.org/1999/xlink" width="500" zoomAndPan="magnify" viewBox="0 0 375 374.999991" height="500" preserveAspectRatio="xMidYMid meet" version="1.0"><defs><g/><clipPath id="dad8b1219f"><path d="M 168 72.8125 L 361.820312 72.8125 L 361.820312 302.3125 L 168 302.3125 Z M 168 72.8125 " clip-rule="nonzero"/></clipPath><clipPath id="bbb7a5cce3"><path d="M 13.070312 72.8125 L 243 72.8125 L 243 302.3125 L 13.070312 302.3125 Z M 13.070312 72.8125 " clip-rule="nonzero"/></clipPath></defs><g fill="#000000" fill-opacity="1"><g transform="translate(101.157281, 207.128465)"><g><path d="M 2.546875 0 L 2 0 L 1.796875 -0.609375 L 0.78125 -0.609375 L 0.578125 0 L 0.046875 0 L 0.953125 -2.65625 L 1.625 -2.65625 Z M 1.265625 -2.09375 L 0.921875 -1.046875 L 1.65625 -1.046875 L 1.3125 -2.09375 Z M 1.265625 -2.09375 "/></g></g></g><g fill="#000000" fill-opacity="1"><g transform="translate(103.742047, 207.128465)"><g><path d="M 0.984375 0.03125 C 0.828125 0.03125 0.6875 -0.00390625 0.5625 -0.078125 C 0.445312 -0.148438 0.351562 -0.265625 0.28125 -0.421875 C 0.21875 -0.578125 0.1875 -0.769531 0.1875 -1 C 0.1875 -1.226562 0.21875 -1.421875 0.28125 -1.578125 C 0.351562 -1.734375 0.453125 -1.847656 0.578125 -1.921875 C 0.703125 -2.003906 0.847656 -2.046875 1.015625 -2.046875 C 1.140625 -2.046875 1.242188 -2.019531 1.328125 -1.96875 C 1.421875 -1.925781 1.503906 -1.863281 1.578125 -1.78125 L 1.609375 -1.78125 L 1.609375 -2.8125 L 2.109375 -2.8125 L 2.109375 0 L 1.609375 0 L 1.609375 -0.265625 L 1.578125 -0.265625 C 1.515625 -0.171875 1.4375 -0.0976562 1.34375 -0.046875 C 1.25 0.00390625 1.128906 0.03125 0.984375 0.03125 Z M 1.15625 -0.390625 C 1.289062 -0.390625 1.398438 -0.4375 1.484375 -0.53125 C 1.566406 -0.632812 1.609375 -0.789062 1.609375 -1 C 1.609375 -1.207031 1.566406 -1.359375 1.484375 -1.453125 C 1.398438 -1.554688 1.289062 -1.609375 1.15625 -1.609375 C 1.007812 -1.609375 0.894531 -1.554688 0.8125 -1.453125 C 0.738281 -1.359375 0.703125 -1.207031 0.703125 -1 C 0.703125 -0.789062 0.738281 -0.632812 0.8125 -0.53125 C 0.894531 -0.4375 1.007812 -0.390625 1.15625 -0.390625 Z M 1.15625 -0.390625 "/></g></g></g><g fill="#000000" fill-opacity="1"><g transform="translate(106.139984, 207.128465)"><g><path d="M 0.984375 0.03125 C 0.828125 0.03125 0.6875 -0.00390625 0.5625 -0.078125 C 0.445312 -0.148438 0.351562 -0.265625 0.28125 -0.421875 C 0.21875 -0.578125 0.1875 -0.769531 0.1875 -1 C 0.1875 -1.226562 0.21875 -1.421875 0.28125 -1.578125 C 0.351562 -1.734375 0.453125 -1.847656 0.578125 -1.921875 C 0.703125 -2.003906 0.847656 -2.046875 1.015625 -2.046875 C 1.140625 -2.046875 1.242188 -2.019531 1.328125 -1.96875 C 1.421875 -1.925781 1.503906 -1.863281 1.578125 -1.78125 L 1.609375 -1.78125 L 1.609375 -2.8125 L 2.109375 -2.8125 L 2.109375 0 L 1.609375 0 L 1.609375 -0.265625 L 1.578125 -0.265625 C 1.515625 -0.171875 1.4375 -0.0976562 1.34375 -0.046875 C 1.25 0.00390625 1.128906 0.03125 0.984375 0.03125 Z M 1.15625 -0.390625 C 1.289062 -0.390625 1.398438 -0.4375 1.484375 -0.53125 C 1.566406 -0.632812 1.609375 -0.789062 1.609375 -1 C 1.609375 -1.207031 1.566406 -1.359375 1.484375 -1.453125 C 1.398438 -1.554688 1.289062 -1.609375 1.15625 -1.609375 C 1.007812 -1.609375 0.894531 -1.554688 0.8125 -1.453125 C 0.738281 -1.359375 0.703125 -1.207031 0.703125 -1 C 0.703125 -0.789062 0.738281 -0.632812 0.8125 -0.53125 C 0.894531 -0.4375 1.007812 -0.390625 1.15625 -0.390625 Z M 1.15625 -0.390625 "/></g></g></g><g fill="#000000" fill-opacity="1"><g transform="translate(108.537921, 207.128465)"><g/></g></g><g fill="#000000" fill-opacity="1"><g transform="translate(109.414021, 207.128465)"><g><path d="M 0.78125 0.03125 C 0.65625 0.03125 0.546875 0.0078125 0.453125 -0.03125 C 0.359375 -0.0820312 0.285156 -0.148438 0.234375 -0.234375 C 0.179688 -0.328125 0.15625 -0.4375 0.15625 -0.5625 C 0.15625 -0.6875 0.179688 -0.785156 0.234375 -0.859375 C 0.285156 -0.941406 0.363281 -1.007812 0.46875 -1.0625 C 0.570312 -1.113281 0.707031 -1.15625 0.875 -1.1875 C 1 -1.207031 1.09375 -1.226562 1.15625 -1.25 C 1.21875 -1.269531 1.257812 -1.296875 1.28125 -1.328125 C 1.300781 -1.359375 1.3125 -1.394531 1.3125 -1.4375 C 1.3125 -1.5 1.289062 -1.546875 1.25 -1.578125 C 1.207031 -1.617188 1.132812 -1.640625 1.03125 -1.640625 C 0.914062 -1.640625 0.804688 -1.613281 0.703125 -1.5625 C 0.609375 -1.507812 0.519531 -1.441406 0.4375 -1.359375 L 0.40625 -1.359375 L 0.203125 -1.6875 C 0.296875 -1.800781 0.414062 -1.890625 0.5625 -1.953125 C 0.71875 -2.015625 0.878906 -2.046875 1.046875 -2.046875 C 1.316406 -2.046875 1.507812 -1.988281 1.625 -1.875 C 1.738281 -1.757812 1.796875 -1.597656 1.796875 -1.390625 L 1.796875 -0.515625 C 1.796875 -0.429688 1.835938 -0.390625 1.921875 -0.390625 C 1.953125 -0.390625 1.984375 -0.394531 2.015625 -0.40625 L 2.03125 -0.390625 L 2.078125 -0.046875 C 2.046875 -0.0234375 2.003906 -0.0078125 1.953125 0 C 1.898438 0.0078125 1.847656 0.015625 1.796875 0.015625 C 1.671875 0.015625 1.570312 -0.00390625 1.5 -0.046875 C 1.4375 -0.0976562 1.394531 -0.171875 1.375 -0.265625 L 1.328125 -0.28125 C 1.234375 -0.0703125 1.050781 0.03125 0.78125 0.03125 Z M 0.9375 -0.34375 C 1.050781 -0.34375 1.144531 -0.378906 1.21875 -0.453125 C 1.289062 -0.535156 1.328125 -0.644531 1.328125 -0.78125 L 1.328125 -0.984375 L 1.296875 -0.984375 C 1.265625 -0.960938 1.222656 -0.941406 1.171875 -0.921875 C 1.117188 -0.910156 1.046875 -0.894531 0.953125 -0.875 C 0.847656 -0.863281 0.769531 -0.832031 0.71875 -0.78125 C 0.675781 -0.738281 0.65625 -0.675781 0.65625 -0.59375 C 0.65625 -0.507812 0.675781 -0.445312 0.71875 -0.40625 C 0.769531 -0.363281 0.84375 -0.34375 0.9375 -0.34375 Z M 0.9375 -0.34375 "/></g></g></g><g fill="#000000" fill-opacity="1"><g transform="translate(111.523553, 207.128465)"><g/></g></g><g fill="#000000" fill-opacity="1"><g transform="translate(112.399653, 207.128465)"><g><path d="M 0.28125 0 L 0.28125 -2.8125 L 0.796875 -2.8125 L 0.796875 -1.734375 L 0.828125 -1.734375 C 0.898438 -1.828125 0.984375 -1.898438 1.078125 -1.953125 C 1.171875 -2.015625 1.285156 -2.046875 1.421875 -2.046875 C 1.867188 -2.046875 2.09375 -1.796875 2.09375 -1.296875 L 2.09375 0 L 1.578125 0 L 1.578125 -1.21875 C 1.578125 -1.363281 1.550781 -1.460938 1.5 -1.515625 C 1.445312 -1.578125 1.363281 -1.609375 1.25 -1.609375 C 1.101562 -1.609375 0.988281 -1.5625 0.90625 -1.46875 C 0.832031 -1.375 0.796875 -1.226562 0.796875 -1.03125 L 0.796875 0 Z M 0.28125 0 "/></g></g></g><g fill="#000000" fill-opacity="1"><g transform="translate(114.743174, 207.128465)"><g><path d="M 1.984375 -0.890625 L 0.6875 -0.890625 C 0.707031 -0.710938 0.757812 -0.582031 0.84375 -0.5 C 0.925781 -0.425781 1.039062 -0.390625 1.1875 -0.390625 C 1.300781 -0.390625 1.394531 -0.410156 1.46875 -0.453125 C 1.539062 -0.492188 1.597656 -0.554688 1.640625 -0.640625 L 1.671875 -0.640625 L 2.015625 -0.4375 C 1.941406 -0.289062 1.835938 -0.175781 1.703125 -0.09375 C 1.578125 -0.0078125 1.40625 0.03125 1.1875 0.03125 C 0.976562 0.03125 0.796875 -0.00390625 0.640625 -0.078125 C 0.492188 -0.160156 0.378906 -0.28125 0.296875 -0.4375 C 0.222656 -0.59375 0.1875 -0.78125 0.1875 -1 C 0.1875 -1.226562 0.226562 -1.421875 0.3125 -1.578125 C 0.394531 -1.734375 0.507812 -1.847656 0.65625 -1.921875 C 0.800781 -2.003906 0.96875 -2.046875 1.15625 -2.046875 C 1.4375 -2.046875 1.648438 -1.96875 1.796875 -1.8125 C 1.953125 -1.664062 2.03125 -1.445312 2.03125 -1.15625 C 2.03125 -1.050781 2.023438 -0.96875 2.015625 -0.90625 Z M 1.546875 -1.21875 C 1.546875 -1.363281 1.507812 -1.472656 1.4375 -1.546875 C 1.375 -1.617188 1.28125 -1.65625 1.15625 -1.65625 C 0.894531 -1.65625 0.742188 -1.507812 0.703125 -1.21875 Z M 1.546875 -1.21875 "/></g></g></g><g fill="#000000" fill-opacity="1"><g transform="translate(116.918005, 207.128465)"><g><path d="M 0.78125 0.03125 C 0.65625 0.03125 0.546875 0.0078125 0.453125 -0.03125 C 0.359375 -0.0820312 0.285156 -0.148438 0.234375 -0.234375 C 0.179688 -0.328125 0.15625 -0.4375 0.15625 -0.5625 C 0.15625 -0.6875 0.179688 -0.785156 0.234375 -0.859375 C 0.285156 -0.941406 0.363281 -1.007812 0.46875 -1.0625 C 0.570312 -1.113281 0.707031 -1.15625 0.875 -1.1875 C 1 -1.207031 1.09375 -1.226562 1.15625 -1.25 C 1.21875 -1.269531 1.257812 -1.296875 1.28125 -1.328125 C 1.300781 -1.359375 1.3125 -1.394531 1.3125 -1.4375 C 1.3125 -1.5 1.289062 -1.546875 1.25 -1.578125 C 1.207031 -1.617188 1.132812 -1.640625 1.03125 -1.640625 C 0.914062 -1.640625 0.804688 -1.613281 0.703125 -1.5625 C 0.609375 -1.507812 0.519531 -1.441406 0.4375 -1.359375 L 0.40625 -1.359375 L 0.203125 -1.6875 C 0.296875 -1.800781 0.414062 -1.890625 0.5625 -1.953125 C 0.71875 -2.015625 0.878906 -2.046875 1.046875 -2.046875 C 1.316406 -2.046875 1.507812 -1.988281 1.625 -1.875 C 1.738281 -1.757812 1.796875 -1.597656 1.796875 -1.390625 L 1.796875 -0.515625 C 1.796875 -0.429688 1.835938 -0.390625 1.921875 -0.390625 C 1.953125 -0.390625 1.984375 -0.394531 2.015625 -0.40625 L 2.03125 -0.390625 L 2.078125 -0.046875 C 2.046875 -0.0234375 2.003906 -0.0078125 1.953125 0 C 1.898438 0.0078125 1.847656 0.015625 1.796875 0.015625 C 1.671875 0.015625 1.570312 -0.00390625 1.5 -0.046875 C 1.4375 -0.0976562 1.394531 -0.171875 1.375 -0.265625 L 1.328125 -0.28125 C 1.234375 -0.0703125 1.050781 0.03125 0.78125 0.03125 Z M 0.9375 -0.34375 C 1.050781 -0.34375 1.144531 -0.378906 1.21875 -0.453125 C 1.289062 -0.535156 1.328125 -0.644531 1.328125 -0.78125 L 1.328125 -0.984375 L 1.296875 -0.984375 C 1.265625 -0.960938 1.222656 -0.941406 1.171875 -0.921875 C 1.117188 -0.910156 1.046875 -0.894531 0.953125 -0.875 C 0.847656 -0.863281 0.769531 -0.832031 0.71875 -0.78125 C 0.675781 -0.738281 0.65625 -0.675781 0.65625 -0.59375 C 0.65625 -0.507812 0.675781 -0.445312 0.71875 -0.40625 C 0.769531 -0.363281 0.84375 -0.34375 0.9375 -0.34375 Z M 0.9375 -0.34375 "/></g></g></g><g fill="#000000" fill-opacity="1"><g transform="translate(119.027536, 207.128465)"><g><path d="M 0.984375 0.03125 C 0.828125 0.03125 0.6875 -0.00390625 0.5625 -0.078125 C 0.445312 -0.148438 0.351562 -0.265625 0.28125 -0.421875 C 0.21875 -0.578125 0.1875 -0.769531 0.1875 -1 C 0.1875 -1.226562 0.21875 -1.421875 0.28125 -1.578125 C 0.351562 -1.734375 0.453125 -1.847656 0.578125 -1.921875 C 0.703125 -2.003906 0.847656 -2.046875 1.015625 -2.046875 C 1.140625 -2.046875 1.242188 -2.019531 1.328125 -1.96875 C 1.421875 -1.925781 1.503906 -1.863281 1.578125 -1.78125 L 1.609375 -1.78125 L 1.609375 -2.8125 L 2.109375 -2.8125 L 2.109375 0 L 1.609375 0 L 1.609375 -0.265625 L 1.578125 -0.265625 C 1.515625 -0.171875 1.4375 -0.0976562 1.34375 -0.046875 C 1.25 0.00390625 1.128906 0.03125 0.984375 0.03125 Z M 1.15625 -0.390625 C 1.289062 -0.390625 1.398438 -0.4375 1.484375 -0.53125 C 1.566406 -0.632812 1.609375 -0.789062 1.609375 -1 C 1.609375 -1.207031 1.566406 -1.359375 1.484375 -1.453125 C 1.398438 -1.554688 1.289062 -1.609375 1.15625 -1.609375 C 1.007812 -1.609375 0.894531 -1.554688 0.8125 -1.453125 C 0.738281 -1.359375 0.703125 -1.207031 0.703125 -1 C 0.703125 -0.789062 0.738281 -0.632812 0.8125 -0.53125 C 0.894531 -0.4375 1.007812 -0.390625 1.15625 -0.390625 Z M 1.15625 -0.390625 "/></g></g></g><g fill="#000000" fill-opacity="1"><g transform="translate(121.425472, 207.128465)"><g><path d="M 0.546875 -2.25 C 0.453125 -2.25 0.375 -2.273438 0.3125 -2.328125 C 0.257812 -2.378906 0.234375 -2.445312 0.234375 -2.53125 C 0.234375 -2.625 0.257812 -2.695312 0.3125 -2.75 C 0.375 -2.800781 0.453125 -2.828125 0.546875 -2.828125 C 0.597656 -2.828125 0.644531 -2.8125 0.6875 -2.78125 C 0.738281 -2.757812 0.773438 -2.726562 0.796875 -2.6875 C 0.828125 -2.644531 0.84375 -2.59375 0.84375 -2.53125 C 0.84375 -2.476562 0.828125 -2.425781 0.796875 -2.375 C 0.773438 -2.332031 0.738281 -2.300781 0.6875 -2.28125 C 0.644531 -2.257812 0.597656 -2.25 0.546875 -2.25 Z M 0.28125 0 L 0.28125 -2 L 0.796875 -2 L 0.796875 0 Z M 0.28125 0 "/></g></g></g><g fill="#000000" fill-opacity="1"><g transform="translate(122.50291, 207.128465)"><g><path d="M 0.28125 0 L 0.28125 -2 L 0.765625 -2 L 0.765625 -1.703125 L 0.8125 -1.703125 C 0.9375 -1.929688 1.140625 -2.046875 1.421875 -2.046875 C 1.648438 -2.046875 1.816406 -1.976562 1.921875 -1.84375 C 2.035156 -1.71875 2.09375 -1.535156 2.09375 -1.296875 L 2.09375 0 L 1.578125 0 L 1.578125 -1.234375 C 1.578125 -1.367188 1.550781 -1.460938 1.5 -1.515625 C 1.445312 -1.578125 1.363281 -1.609375 1.25 -1.609375 C 1.101562 -1.609375 0.988281 -1.5625 0.90625 -1.46875 C 0.832031 -1.382812 0.796875 -1.238281 0.796875 -1.03125 L 0.796875 0 Z M 0.28125 0 "/></g></g></g><g fill="#000000" fill-opacity="1"><g transform="translate(124.84643, 207.128465)"><g><path d="M 1.03125 0.84375 C 0.707031 0.84375 0.46875 0.796875 0.3125 0.703125 C 0.15625 0.609375 0.078125 0.472656 0.078125 0.296875 C 0.078125 0.191406 0.109375 0.101562 0.171875 0.03125 C 0.234375 -0.03125 0.332031 -0.0703125 0.46875 -0.09375 L 0.46875 -0.125 C 0.394531 -0.164062 0.34375 -0.210938 0.3125 -0.265625 C 0.28125 -0.316406 0.265625 -0.375 0.265625 -0.4375 C 0.265625 -0.601562 0.367188 -0.710938 0.578125 -0.765625 L 0.578125 -0.8125 C 0.472656 -0.875 0.394531 -0.945312 0.34375 -1.03125 C 0.289062 -1.125 0.265625 -1.238281 0.265625 -1.375 C 0.265625 -1.5 0.289062 -1.613281 0.34375 -1.71875 C 0.40625 -1.820312 0.492188 -1.898438 0.609375 -1.953125 C 0.734375 -2.015625 0.878906 -2.046875 1.046875 -2.046875 C 1.210938 -2.046875 1.34375 -2.015625 1.4375 -1.953125 C 1.5 -2.046875 1.535156 -2.148438 1.546875 -2.265625 L 1.59375 -2.28125 L 1.953125 -2.203125 C 1.941406 -2.109375 1.910156 -2.023438 1.859375 -1.953125 C 1.816406 -1.890625 1.75 -1.832031 1.65625 -1.78125 L 1.65625 -1.75 C 1.769531 -1.644531 1.828125 -1.503906 1.828125 -1.328125 C 1.828125 -1.203125 1.796875 -1.085938 1.734375 -0.984375 C 1.671875 -0.890625 1.578125 -0.8125 1.453125 -0.75 C 1.335938 -0.695312 1.203125 -0.671875 1.046875 -0.671875 L 0.96875 -0.6875 C 0.914062 -0.6875 0.878906 -0.6875 0.859375 -0.6875 C 0.816406 -0.6875 0.78125 -0.671875 0.75 -0.640625 C 0.726562 -0.617188 0.71875 -0.585938 0.71875 -0.546875 C 0.71875 -0.503906 0.734375 -0.472656 0.765625 -0.453125 C 0.804688 -0.429688 0.859375 -0.414062 0.921875 -0.40625 L 1.375 -0.390625 C 1.8125 -0.378906 2.03125 -0.191406 2.03125 0.171875 C 2.03125 0.304688 1.992188 0.421875 1.921875 0.515625 C 1.859375 0.617188 1.753906 0.695312 1.609375 0.75 C 1.460938 0.8125 1.269531 0.84375 1.03125 0.84375 Z M 1.046875 -1.03125 C 1.140625 -1.03125 1.210938 -1.054688 1.265625 -1.109375 C 1.328125 -1.171875 1.359375 -1.253906 1.359375 -1.359375 C 1.359375 -1.460938 1.328125 -1.539062 1.265625 -1.59375 C 1.210938 -1.65625 1.140625 -1.6875 1.046875 -1.6875 C 0.941406 -1.6875 0.863281 -1.65625 0.8125 -1.59375 C 0.757812 -1.539062 0.734375 -1.460938 0.734375 -1.359375 C 0.734375 -1.253906 0.757812 -1.171875 0.8125 -1.109375 C 0.863281 -1.054688 0.941406 -1.03125 1.046875 -1.03125 Z M 1.03125 0.484375 C 1.207031 0.484375 1.332031 0.457031 1.40625 0.40625 C 1.488281 0.363281 1.53125 0.300781 1.53125 0.21875 C 1.53125 0.15625 1.507812 0.109375 1.46875 0.078125 C 1.425781 0.0546875 1.363281 0.0390625 1.28125 0.03125 L 0.890625 0.015625 C 0.867188 0.015625 0.851562 0.015625 0.84375 0.015625 C 0.832031 0.015625 0.820312 0.015625 0.8125 0.015625 C 0.726562 0.015625 0.660156 0.03125 0.609375 0.0625 C 0.566406 0.101562 0.546875 0.15625 0.546875 0.21875 C 0.546875 0.300781 0.585938 0.363281 0.671875 0.40625 C 0.753906 0.457031 0.875 0.484375 1.03125 0.484375 Z M 1.03125 0.484375 "/></g></g></g><g clip-path="url(#dad8b1219f)"><path fill="#c84545" d="M 354.042969 200.683594 C 349.925781 193.566406 344.902344 187.566406 339.039062 182.753906 C 339.460938 182.195312 339.949219 181.707031 340.367188 181.148438 C 348.042969 171.3125 351.949219 157.984375 351.949219 141.589844 C 351.949219 131.121094 349.367188 120.585938 344.273438 110.261719 C 338.902344 99.308594 330.179688 90.238281 318.390625 83.261719 C 306.597656 76.28125 291.804688 72.863281 273.246094 72.863281 L 270.457031 72.863281 L 235.640625 128.054688 L 275.550781 128.054688 C 283.292969 128.054688 287.0625 129.519531 288.597656 130.425781 C 291.039062 131.890625 292.714844 133.496094 293.621094 135.308594 C 294.875 137.820312 295.503906 140.402344 295.503906 143.261719 C 295.503906 147.308594 294.734375 150.308594 293.339844 152.332031 C 291.527344 154.777344 289.222656 156.449219 286.222656 157.636719 C 282.246094 159.242188 277.921875 160.007812 273.246094 160.007812 L 225.035156 160.007812 L 225.035156 145.007812 L 168.660156 234.523438 L 168.660156 302.0625 L 278.199219 302.0625 C 304.574219 302.0625 325.226562 295.644531 339.460938 283.015625 C 354.113281 270.039062 361.855469 252.945312 361.855469 233.6875 C 361.925781 220.917969 359.273438 209.824219 354.042969 200.683594 Z M 301.292969 241.988281 C 297.109375 245.199219 289.921875 246.875 280.574219 246.875 L 225.035156 246.875 L 225.035156 214.359375 L 278.199219 214.359375 C 288.667969 214.359375 296.410156 216.3125 300.039062 219.871094 C 303.804688 223.640625 305.550781 227.335938 305.550781 231.941406 C 305.550781 237.941406 303.457031 240.316406 301.292969 241.988281 Z M 301.292969 241.988281 " fill-opacity="1" fill-rule="nonzero"/></g><g clip-path="url(#bbb7a5cce3)"><path fill="#c84545" d="M 225.035156 101.050781 L 242.757812 72.863281 L 114.585938 72.863281 C 90.167969 72.863281 70.214844 79.910156 55.074219 93.933594 C 39.582031 108.238281 31.769531 127.425781 31.769531 151.007812 C 31.769531 166.847656 35.117188 180.101562 41.746094 190.359375 C 48.164062 200.265625 56.398438 207.941406 66.234375 213.175781 C 67.492188 213.800781 68.679688 214.429688 69.933594 215.058594 L 13.070312 302.132812 L 80.398438 302.132812 L 127.496094 227.335938 L 145.425781 227.335938 L 168.589844 190.566406 Z M 118.355469 172.078125 C 112.984375 172.078125 107.402344 171.242188 101.75 169.566406 C 97.5625 168.3125 94.074219 166.148438 91.214844 162.9375 C 89.121094 160.636719 88.074219 156.589844 88.074219 150.9375 C 88.074219 141.519531 91.632812 137.332031 94.703125 134.75 C 100.003906 130.285156 107.332031 128.054688 117.167969 128.054688 L 168.589844 128.054688 L 168.589844 172.078125 Z M 118.355469 172.078125 " fill-opacity="1" fill-rule="nonzero"/></g></svg>
